<svg width="506" height="352" viewBox="0 0 506 352" fill="none" xmlns="http://www.w3.org/2000/svg">
<path d="M122.497 21V6.1H127.917C128.917 6.1 129.797 6.28667 130.557 6.66C131.317 7.02 131.91 7.55333 132.337 8.26C132.777 8.95333 132.997 9.78667 132.997 10.76C132.997 11.7867 132.737 12.6667 132.217 13.4C131.71 14.1333 131.024 14.6667 130.157 15L133.597 21H130.917L127.257 14.5L128.797 15.4H124.857V21H122.497ZM124.857 13.3H127.957C128.504 13.3 128.977 13.1933 129.377 12.98C129.777 12.7667 130.084 12.4733 130.297 12.1C130.524 11.7133 130.637 11.26 130.637 10.74C130.637 10.22 130.524 9.77333 130.297 9.4C130.084 9.01333 129.777 8.72 129.377 8.52C128.977 8.30667 128.504 8.2 127.957 8.2H124.857V13.3ZM142.823 21.24C141.743 21.24 140.736 21.0467 139.803 20.66C138.883 20.2733 138.07 19.7333 137.363 19.04C136.67 18.3467 136.123 17.5333 135.723 16.6C135.336 15.6667 135.143 14.6467 135.143 13.54C135.143 12.4333 135.336 11.4133 135.723 10.48C136.123 9.53333 136.67 8.72 137.363 8.04C138.056 7.34667 138.87 6.81333 139.803 6.44C140.736 6.05333 141.743 5.86 142.823 5.86C143.916 5.86 144.923 6.05333 145.843 6.44C146.776 6.81333 147.59 7.34667 148.283 8.04C148.99 8.73333 149.536 9.54667 149.923 10.48C150.31 11.4133 150.503 12.4333 150.503 13.54C150.503 14.6467 150.303 15.6667 149.903 16.6C149.516 17.5333 148.976 18.3467 148.283 19.04C147.59 19.7333 146.776 20.2733 145.843 20.66C144.91 21.0467 143.903 21.24 142.823 21.24ZM142.823 19.08C143.596 19.08 144.303 18.94 144.943 18.66C145.596 18.38 146.163 17.9933 146.643 17.5C147.123 16.9933 147.496 16.4067 147.763 15.74C148.03 15.06 148.163 14.3267 148.163 13.54C148.163 12.7533 148.03 12.0267 147.763 11.36C147.496 10.6933 147.123 10.1067 146.643 9.6C146.163 9.09333 145.596 8.7 144.943 8.42C144.303 8.14 143.596 8 142.823 8C142.05 8 141.336 8.14 140.683 8.42C140.043 8.7 139.483 9.09333 139.003 9.6C138.523 10.1067 138.15 10.6933 137.883 11.36C137.63 12.0267 137.503 12.7533 137.503 13.54C137.503 14.3267 137.63 15.06 137.883 15.74C138.15 16.4067 138.523 16.9933 139.003 17.5C139.483 17.9933 140.05 18.38 140.703 18.66C141.356 18.94 142.063 19.08 142.823 19.08ZM153.142 21V6.1H159.422C160.355 6.1 161.162 6.26667 161.842 6.6C162.522 6.92 163.042 7.38667 163.402 8C163.762 8.6 163.942 9.31333 163.942 10.14C163.942 10.86 163.755 11.52 163.382 12.12C163.022 12.7067 162.455 13.1733 161.682 13.52V12.52C162.362 12.7867 162.915 13.1267 163.342 13.54C163.768 13.94 164.075 14.3933 164.262 14.9C164.462 15.4067 164.562 15.94 164.562 16.5C164.562 17.9 164.102 19 163.182 19.8C162.275 20.6 161.028 21 159.442 21H153.142ZM155.502 18.9H159.622C160.408 18.9 161.035 18.6867 161.502 18.26C161.968 17.82 162.202 17.24 162.202 16.52C162.202 15.7867 161.968 15.2067 161.502 14.78C161.035 14.34 160.408 14.12 159.622 14.12H155.502V18.9ZM155.502 12.04H159.482C160.122 12.04 160.635 11.86 161.022 11.5C161.408 11.1267 161.602 10.64 161.602 10.04C161.602 9.44 161.408 8.97333 161.022 8.64C160.635 8.30667 160.122 8.14 159.482 8.14H155.502V12.04ZM174.229 21.24C173.149 21.24 172.143 21.0467 171.209 20.66C170.289 20.2733 169.476 19.7333 168.769 19.04C168.076 18.3467 167.529 17.5333 167.129 16.6C166.743 15.6667 166.549 14.6467 166.549 13.54C166.549 12.4333 166.743 11.4133 167.129 10.48C167.529 9.53333 168.076 8.72 168.769 8.04C169.463 7.34667 170.276 6.81333 171.209 6.44C172.143 6.05333 173.149 5.86 174.229 5.86C175.323 5.86 176.329 6.05333 177.249 6.44C178.183 6.81333 178.996 7.34667 179.689 8.04C180.396 8.73333 180.943 9.54667 181.329 10.48C181.716 11.4133 181.909 12.4333 181.909 13.54C181.909 14.6467 181.709 15.6667 181.309 16.6C180.923 17.5333 180.383 18.3467 179.689 19.04C178.996 19.7333 178.183 20.2733 177.249 20.66C176.316 21.0467 175.309 21.24 174.229 21.24ZM174.229 19.08C175.003 19.08 175.709 18.94 176.349 18.66C177.003 18.38 177.569 17.9933 178.049 17.5C178.529 16.9933 178.903 16.4067 179.169 15.74C179.436 15.06 179.569 14.3267 179.569 13.54C179.569 12.7533 179.436 12.0267 179.169 11.36C178.903 10.6933 178.529 10.1067 178.049 9.6C177.569 9.09333 177.003 8.7 176.349 8.42C175.709 8.14 175.003 8 174.229 8C173.456 8 172.743 8.14 172.089 8.42C171.449 8.7 170.889 9.09333 170.409 9.6C169.929 10.1067 169.556 10.6933 169.289 11.36C169.036 12.0267 168.909 12.7533 168.909 13.54C168.909 14.3267 169.036 15.06 169.289 15.74C169.556 16.4067 169.929 16.9933 170.409 17.5C170.889 17.9933 171.456 18.38 172.109 18.66C172.763 18.94 173.469 19.08 174.229 19.08ZM186.582 21V8.2H182.622V6.1H192.822V8.2H188.922V21H186.582ZM194.587 21V6.1H196.947V21H194.587ZM206.976 21.24C205.923 21.24 204.943 21.0467 204.036 20.66C203.143 20.2733 202.363 19.74 201.696 19.06C201.043 18.3667 200.529 17.5533 200.156 16.62C199.783 15.6867 199.596 14.66 199.596 13.54C199.596 12.4333 199.776 11.4133 200.136 10.48C200.509 9.53333 201.029 8.72 201.696 8.04C202.363 7.34667 203.143 6.81333 204.036 6.44C204.929 6.05333 205.909 5.86 206.976 5.86C208.029 5.86 208.969 6.04 209.796 6.4C210.636 6.76 211.343 7.23333 211.916 7.82C212.489 8.39333 212.903 9.02 213.156 9.7L211.036 10.7C210.716 9.9 210.203 9.25333 209.496 8.76C208.803 8.25333 207.963 8 206.976 8C205.989 8 205.116 8.23333 204.356 8.7C203.596 9.16667 203.003 9.81333 202.576 10.64C202.163 11.4667 201.956 12.4333 201.956 13.54C201.956 14.6467 202.163 15.62 202.576 16.46C203.003 17.2867 203.596 17.9333 204.356 18.4C205.116 18.8533 205.989 19.08 206.976 19.08C207.963 19.08 208.803 18.8333 209.496 18.34C210.203 17.8467 210.716 17.2 211.036 16.4L213.156 17.4C212.903 18.0667 212.489 18.6933 211.916 19.28C211.343 19.8667 210.636 20.34 209.796 20.7C208.969 21.06 208.029 21.24 206.976 21.24Z" fill="#212A34"/>
<path d="M171.371 348.24C170.317 348.24 169.337 348.047 168.431 347.66C167.537 347.273 166.757 346.74 166.091 346.06C165.437 345.367 164.924 344.553 164.551 343.62C164.177 342.687 163.991 341.66 163.991 340.54C163.991 339.433 164.171 338.413 164.531 337.48C164.904 336.533 165.424 335.72 166.091 335.04C166.757 334.347 167.537 333.813 168.431 333.44C169.324 333.053 170.304 332.86 171.371 332.86C172.424 332.86 173.364 333.04 174.191 333.4C175.031 333.76 175.737 334.233 176.311 334.82C176.884 335.393 177.297 336.02 177.551 336.7L175.431 337.7C175.111 336.9 174.597 336.253 173.891 335.76C173.197 335.253 172.357 335 171.371 335C170.384 335 169.511 335.233 168.751 335.7C167.991 336.167 167.397 336.813 166.971 337.64C166.557 338.467 166.351 339.433 166.351 340.54C166.351 341.647 166.557 342.62 166.971 343.46C167.397 344.287 167.991 344.933 168.751 345.4C169.511 345.853 170.384 346.08 171.371 346.08C172.357 346.08 173.197 345.833 173.891 345.34C174.597 344.847 175.111 344.2 175.431 343.4L177.551 344.4C177.297 345.067 176.884 345.693 176.311 346.28C175.737 346.867 175.031 347.34 174.191 347.7C173.364 348.06 172.424 348.24 171.371 348.24ZM178.658 348L183.898 333.1H186.818L192.058 348H189.538L188.398 344.66H182.338L181.178 348H178.658ZM183.018 342.56H187.678L185.038 334.76H185.698L183.018 342.56ZM193.825 348V333.1H198.705C200.252 333.1 201.592 333.413 202.725 334.04C203.872 334.653 204.758 335.52 205.385 336.64C206.012 337.76 206.325 339.06 206.325 340.54C206.325 342.007 206.012 343.307 205.385 344.44C204.758 345.56 203.872 346.433 202.725 347.06C201.592 347.687 200.252 348 198.705 348H193.825ZM196.185 345.9H198.745C199.798 345.9 200.712 345.68 201.485 345.24C202.272 344.8 202.878 344.18 203.305 343.38C203.732 342.58 203.945 341.633 203.945 340.54C203.945 339.447 203.725 338.507 203.285 337.72C202.858 336.92 202.258 336.3 201.485 335.86C200.712 335.42 199.798 335.2 198.745 335.2H196.185V345.9Z" fill="#212A34"/>
<path d="M2.32906 177V162.1H12.1491V164.2H4.68906V168.48H11.7491V170.58H4.68906V174.9H12.1491V177H2.32906ZM14.3408 177V162.1H16.7008V174.9H23.1408V177H14.3408ZM25.122 177V162.1H34.942V164.2H27.482V168.48H34.542V170.58H27.482V174.9H34.942V177H25.122ZM44.0738 177.24C43.0204 177.24 42.0404 177.047 41.1338 176.66C40.2404 176.273 39.4604 175.74 38.7938 175.06C38.1404 174.367 37.6271 173.553 37.2538 172.62C36.8804 171.687 36.6938 170.66 36.6938 169.54C36.6938 168.433 36.8738 167.413 37.2338 166.48C37.6071 165.533 38.1271 164.72 38.7938 164.04C39.4604 163.347 40.2404 162.813 41.1338 162.44C42.0271 162.053 43.0071 161.86 44.0738 161.86C45.1271 161.86 46.0671 162.04 46.8937 162.4C47.7338 162.76 48.4404 163.233 49.0138 163.82C49.5871 164.393 50.0004 165.02 50.2538 165.7L48.1338 166.7C47.8138 165.9 47.3004 165.253 46.5938 164.76C45.9004 164.253 45.0604 164 44.0738 164C43.0871 164 42.2138 164.233 41.4538 164.7C40.6938 165.167 40.1004 165.813 39.6738 166.64C39.2604 167.467 39.0538 168.433 39.0538 169.54C39.0538 170.647 39.2604 171.62 39.6738 172.46C40.1004 173.287 40.6938 173.933 41.4538 174.4C42.2138 174.853 43.0871 175.08 44.0738 175.08C45.0604 175.08 45.9004 174.833 46.5938 174.34C47.3004 173.847 47.8138 173.2 48.1338 172.4L50.2538 173.4C50.0004 174.067 49.5871 174.693 49.0138 175.28C48.4404 175.867 47.7338 176.34 46.8937 176.7C46.0671 177.06 45.1271 177.24 44.0738 177.24ZM55.3206 177V164.2H51.3606V162.1H61.5606V164.2H57.6606V177H55.3206ZM63.3252 177V162.1H68.7452C69.7452 162.1 70.6252 162.287 71.3852 162.66C72.1452 163.02 72.7385 163.553 73.1652 164.26C73.6052 164.953 73.8252 165.787 73.8252 166.76C73.8252 167.787 73.5652 168.667 73.0452 169.4C72.5385 170.133 71.8518 170.667 70.9852 171L74.4252 177H71.7452L68.0852 170.5L69.6252 171.4H65.6852V177H63.3252ZM65.6852 169.3H68.7852C69.3318 169.3 69.8052 169.193 70.2052 168.98C70.6052 168.767 70.9118 168.473 71.1252 168.1C71.3518 167.713 71.4652 167.26 71.4652 166.74C71.4652 166.22 71.3518 165.773 71.1252 165.4C70.9118 165.013 70.6052 164.72 70.2052 164.52C69.8052 164.307 69.3318 164.2 68.7852 164.2H65.6852V169.3ZM83.6511 177.24C82.5711 177.24 81.5644 177.047 80.6311 176.66C79.7111 176.273 78.8978 175.733 78.1911 175.04C77.4978 174.347 76.9511 173.533 76.5511 172.6C76.1644 171.667 75.9711 170.647 75.9711 169.54C75.9711 168.433 76.1644 167.413 76.5511 166.48C76.9511 165.533 77.4978 164.72 78.1911 164.04C78.8844 163.347 79.6978 162.813 80.6311 162.44C81.5644 162.053 82.5711 161.86 83.6511 161.86C84.7444 161.86 85.7511 162.053 86.6711 162.44C87.6044 162.813 88.4178 163.347 89.1111 164.04C89.8178 164.733 90.3644 165.547 90.7511 166.48C91.1378 167.413 91.3311 168.433 91.3311 169.54C91.3311 170.647 91.1311 171.667 90.7311 172.6C90.3444 173.533 89.8044 174.347 89.1111 175.04C88.4178 175.733 87.6044 176.273 86.6711 176.66C85.7378 177.047 84.7311 177.24 83.6511 177.24ZM83.6511 175.08C84.4244 175.08 85.1311 174.94 85.7711 174.66C86.4244 174.38 86.9911 173.993 87.4711 173.5C87.9511 172.993 88.3244 172.407 88.5911 171.74C88.8578 171.06 88.9911 170.327 88.9911 169.54C88.9911 168.753 88.8578 168.027 88.5911 167.36C88.3244 166.693 87.9511 166.107 87.4711 165.6C86.9911 165.093 86.4244 164.7 85.7711 164.42C85.1311 164.14 84.4244 164 83.6511 164C82.8778 164 82.1644 164.14 81.5111 164.42C80.8711 164.7 80.3111 165.093 79.8311 165.6C79.3511 166.107 78.9778 166.693 78.7111 167.36C78.4578 168.027 78.3311 168.753 78.3311 169.54C78.3311 170.327 78.4578 171.06 78.7111 171.74C78.9778 172.407 79.3511 172.993 79.8311 173.5C80.3111 173.993 80.8778 174.38 81.5311 174.66C82.1844 174.94 82.8911 175.08 83.6511 175.08ZM93.9697 177V162.1H95.8697L104.23 173.64L103.33 173.78V162.1H105.67V177H103.77L95.4697 165.38L96.3297 165.22V177H93.9697ZM108.755 177V162.1H111.115V177H108.755ZM121.144 177.24C120.091 177.24 119.111 177.047 118.204 176.66C117.311 176.273 116.531 175.74 115.864 175.06C115.211 174.367 114.697 173.553 114.324 172.62C113.951 171.687 113.764 170.66 113.764 169.54C113.764 168.433 113.944 167.413 114.304 166.48C114.677 165.533 115.197 164.72 115.864 164.04C116.531 163.347 117.311 162.813 118.204 162.44C119.097 162.053 120.077 161.86 121.144 161.86C122.197 161.86 123.137 162.04 123.964 162.4C124.804 162.76 125.511 163.233 126.084 163.82C126.657 164.393 127.071 165.02 127.324 165.7L125.204 166.7C124.884 165.9 124.371 165.253 123.664 164.76C122.971 164.253 122.131 164 121.144 164C120.157 164 119.284 164.233 118.524 164.7C117.764 165.167 117.171 165.813 116.744 166.64C116.331 167.467 116.124 168.433 116.124 169.54C116.124 170.647 116.331 171.62 116.744 172.46C117.171 173.287 117.764 173.933 118.524 174.4C119.284 174.853 120.157 175.08 121.144 175.08C122.131 175.08 122.971 174.833 123.664 174.34C124.371 173.847 124.884 173.2 125.204 172.4L127.324 173.4C127.071 174.067 126.657 174.693 126.084 175.28C125.511 175.867 124.804 176.34 123.964 176.7C123.137 177.06 122.197 177.24 121.144 177.24Z" fill="#212A34"/>
<path d="M483.572 181L488.812 166.1H491.732L496.972 181H494.452L493.312 177.66H487.252L486.092 181H483.572ZM487.932 175.56H492.592L489.952 167.76H490.612L487.932 175.56ZM498.739 181V166.1H501.099V181H498.739Z" fill="#212A34"/>
<path d="M395.335 21.24C394.535 21.24 393.781 21.0933 393.075 20.8C392.381 20.5067 391.781 20.0933 391.275 19.56C390.781 19.0267 390.428 18.4 390.215 17.68L392.215 16.92C392.481 17.6267 392.888 18.1733 393.435 18.56C393.981 18.9467 394.615 19.14 395.335 19.14C395.921 19.14 396.428 19.0267 396.855 18.8C397.295 18.5733 397.635 18.2533 397.875 17.84C398.128 17.4267 398.255 16.9267 398.255 16.34C398.255 15.7667 398.128 15.2733 397.875 14.86C397.635 14.4467 397.295 14.1333 396.855 13.92C396.428 13.7067 395.921 13.6 395.335 13.6C395.095 13.6 394.848 13.62 394.595 13.66C394.355 13.7 394.141 13.7533 393.955 13.82L393.435 12.72L397.355 8.1H391.015V6.1H399.995V8L396.155 12.6L396.095 11.84C396.988 11.8533 397.775 12.0533 398.455 12.44C399.135 12.8133 399.661 13.3333 400.035 14C400.421 14.6533 400.615 15.4133 400.615 16.28C400.615 17.2133 400.388 18.06 399.935 18.82C399.481 19.5667 398.855 20.16 398.055 20.6C397.268 21.0267 396.361 21.24 395.335 21.24ZM403.241 21V6.1H408.121C409.668 6.1 411.008 6.41333 412.141 7.04C413.288 7.65333 414.175 8.52 414.801 9.64C415.428 10.76 415.741 12.06 415.741 13.54C415.741 15.0067 415.428 16.3067 414.801 17.44C414.175 18.56 413.288 19.4333 412.141 20.06C411.008 20.6867 409.668 21 408.121 21H403.241ZM405.601 18.9H408.161C409.215 18.9 410.128 18.68 410.901 18.24C411.688 17.8 412.295 17.18 412.721 16.38C413.148 15.58 413.361 14.6333 413.361 13.54C413.361 12.4467 413.141 11.5067 412.701 10.72C412.275 9.92 411.675 9.3 410.901 8.86C410.128 8.42 409.215 8.2 408.161 8.2H405.601V18.9Z" fill="#212A34"/>
<path d="M395.763 348.24C394.71 348.24 393.73 348.047 392.823 347.66C391.93 347.273 391.15 346.74 390.483 346.06C389.83 345.367 389.317 344.553 388.943 343.62C388.57 342.687 388.383 341.66 388.383 340.54C388.383 339.433 388.563 338.413 388.923 337.48C389.297 336.533 389.817 335.72 390.483 335.04C391.15 334.347 391.93 333.813 392.823 333.44C393.717 333.053 394.697 332.86 395.763 332.86C396.817 332.86 397.757 333.04 398.583 333.4C399.423 333.76 400.13 334.233 400.703 334.82C401.277 335.393 401.69 336.02 401.943 336.7L399.823 337.7C399.503 336.9 398.99 336.253 398.283 335.76C397.59 335.253 396.75 335 395.763 335C394.777 335 393.903 335.233 393.143 335.7C392.383 336.167 391.79 336.813 391.363 337.64C390.95 338.467 390.743 339.433 390.743 340.54C390.743 341.647 390.95 342.62 391.363 343.46C391.79 344.287 392.383 344.933 393.143 345.4C393.903 345.853 394.777 346.08 395.763 346.08C396.75 346.08 397.59 345.833 398.283 345.34C398.99 344.847 399.503 344.2 399.823 343.4L401.943 344.4C401.69 345.067 401.277 345.693 400.703 346.28C400.13 346.867 399.423 347.34 398.583 347.7C397.757 348.06 396.817 348.24 395.763 348.24ZM411.61 348.24C410.53 348.24 409.523 348.047 408.59 347.66C407.67 347.273 406.857 346.733 406.15 346.04C405.457 345.347 404.91 344.533 404.51 343.6C404.123 342.667 403.93 341.647 403.93 340.54C403.93 339.433 404.123 338.413 404.51 337.48C404.91 336.533 405.457 335.72 406.15 335.04C406.843 334.347 407.657 333.813 408.59 333.44C409.523 333.053 410.53 332.86 411.61 332.86C412.703 332.86 413.71 333.053 414.63 333.44C415.563 333.813 416.377 334.347 417.07 335.04C417.777 335.733 418.323 336.547 418.71 337.48C419.097 338.413 419.29 339.433 419.29 340.54C419.29 341.647 419.09 342.667 418.69 343.6C418.303 344.533 417.763 345.347 417.07 346.04C416.377 346.733 415.563 347.273 414.63 347.66C413.697 348.047 412.69 348.24 411.61 348.24ZM411.61 346.08C412.383 346.08 413.09 345.94 413.73 345.66C414.383 345.38 414.95 344.993 415.43 344.5C415.91 343.993 416.283 343.407 416.55 342.74C416.817 342.06 416.95 341.327 416.95 340.54C416.95 339.753 416.817 339.027 416.55 338.36C416.283 337.693 415.91 337.107 415.43 336.6C414.95 336.093 414.383 335.7 413.73 335.42C413.09 335.14 412.383 335 411.61 335C410.837 335 410.123 335.14 409.47 335.42C408.83 335.7 408.27 336.093 407.79 336.6C407.31 337.107 406.937 337.693 406.67 338.36C406.417 339.027 406.29 339.753 406.29 340.54C406.29 341.327 406.417 342.06 406.67 342.74C406.937 343.407 407.31 343.993 407.79 344.5C408.27 344.993 408.837 345.38 409.49 345.66C410.143 345.94 410.85 346.08 411.61 346.08ZM421.929 348V333.1H426.809C428.355 333.1 429.695 333.413 430.829 334.04C431.975 334.653 432.862 335.52 433.489 336.64C434.115 337.76 434.429 339.06 434.429 340.54C434.429 342.007 434.115 343.307 433.489 344.44C432.862 345.56 431.975 346.433 430.829 347.06C429.695 347.687 428.355 348 426.809 348H421.929ZM424.289 345.9H426.849C427.902 345.9 428.815 345.68 429.589 345.24C430.375 344.8 430.982 344.18 431.409 343.38C431.835 342.58 432.049 341.633 432.049 340.54C432.049 339.447 431.829 338.507 431.389 337.72C430.962 336.92 430.362 336.3 429.589 335.86C428.815 335.42 427.902 335.2 426.849 335.2H424.289V345.9ZM436.753 348V333.1H439.113V348H436.753ZM442.202 348V333.1H444.102L452.462 344.64L451.562 344.78V333.1H453.902V348H452.002L443.702 336.38L444.562 336.22V348H442.202ZM463.967 348.24C462.914 348.24 461.934 348.047 461.027 347.66C460.134 347.273 459.347 346.74 458.667 346.06C458.001 345.367 457.481 344.553 457.107 343.62C456.734 342.687 456.547 341.66 456.547 340.54C456.547 339.433 456.727 338.413 457.087 337.48C457.461 336.533 457.981 335.72 458.647 335.04C459.314 334.347 460.094 333.813 460.987 333.44C461.881 333.053 462.861 332.86 463.927 332.86C464.981 332.86 465.921 333.04 466.747 333.4C467.587 333.76 468.294 334.233 468.867 334.82C469.441 335.393 469.854 336.02 470.107 336.7L468.007 337.72C467.701 336.907 467.194 336.253 466.487 335.76C465.781 335.253 464.927 335 463.927 335C462.941 335 462.067 335.233 461.307 335.7C460.547 336.167 459.954 336.813 459.527 337.64C459.114 338.467 458.907 339.433 458.907 340.54C458.907 341.647 459.121 342.62 459.547 343.46C459.987 344.287 460.587 344.933 461.347 345.4C462.107 345.853 462.981 346.08 463.967 346.08C464.794 346.08 465.547 345.913 466.227 345.58C466.921 345.233 467.474 344.753 467.887 344.14C468.301 343.513 468.507 342.787 468.507 341.96V340.94L469.567 341.9H463.927V339.9H470.847V341.3C470.847 342.393 470.661 343.373 470.287 344.24C469.914 345.093 469.407 345.82 468.767 346.42C468.127 347.02 467.394 347.473 466.567 347.78C465.741 348.087 464.874 348.24 463.967 348.24Z" fill="#212A34"/>
<circle cx="302.542" cy="175.541" r="34.0752" stroke="#94A3B8" stroke-width="3.2"/>
<circle cx="302.542" cy="175.541" r="66.5503" stroke="#94A3B8" stroke-width="3.2"/>
<circle cx="302.542" cy="175.541" r="99.0255" stroke="#94A3B8" stroke-width="3.2"/>
<circle cx="302.542" cy="175.541" r="131.501" stroke="#94A3B8" stroke-width="3.2"/>
<circle cx="302.542" cy="175.541" r="163.976" stroke="#94A3B8" stroke-width="3.2"/>
<line x1="140.167" y1="173.941" x2="464.918" y2="173.941" stroke="#94A3B8" stroke-width="3.2"/>
<line x1="222.797" y1="34.1009" x2="385.378" y2="315.699" stroke="#94A3B8" stroke-width="3.2"/>
<line x1="220.026" y1="315.699" x2="382.606" y2="34.1009" stroke="#94A3B8" stroke-width="3.2"/>
<circle cx="253.992" cy="90.2935" r="2.43564" fill="#9fef00"/>
<circle cx="204.63" cy="175.054" r="2.43564" fill="#9fef00"/>
<circle cx="269.905" cy="231.56" r="2.43564" fill="#9fef00"/>
<circle cx="360.835" cy="275.402" r="2.43564" fill="#9fef00"/>
<circle cx="416.692" cy="175.054" r="2.43564" fill="#9fef00"/>
<circle cx="359.536" cy="76.9787" r="2.43564" fill="#9fef00"/>
<path opacity="0.5" d="M359.443 79.4685L254.25 93.075L204.576 176.315L269.996 232.341L361.391 275.402L416.747 176.475L359.443 79.4685Z" fill="#9fef00" stroke="#03FF89" stroke-width="1.2"/>
</svg>
