<svg width="219" height="185" viewBox="0 0 219 185" fill="none" xmlns="http://www.w3.org/2000/svg">
<path d="M169.492 38.1342C169.22 38.0871 168.962 38.2696 168.915 38.5417C168.867 38.8139 169.05 39.0726 169.322 39.1196L169.492 38.1342ZM44.5271 82.4272L44.8636 82.797L44.5271 82.4272ZM67.2843 65.7035C67.3449 65.4341 67.1755 65.1666 66.9061 65.106L62.5156 64.1193C62.2462 64.0587 61.9787 64.228 61.9182 64.4975C61.8576 64.7669 62.0269 65.0344 62.2964 65.0949L66.199 65.9721L65.3219 69.8747C65.2613 70.1441 65.4306 70.4116 65.7001 70.4722C65.9695 70.5327 66.237 70.3634 66.2975 70.094L67.2843 65.7035ZM197.782 57.0204C203.393 69.0532 198.763 84.6229 186.441 100.15C174.139 115.652 154.265 130.975 129.727 142.417L130.149 143.323C154.798 131.83 174.807 116.419 187.224 100.772C199.62 85.1514 204.545 69.1588 198.688 56.5978L197.782 57.0204ZM129.727 142.417C105.188 153.86 80.6754 159.235 60.8934 158.694C41.078 158.153 26.1751 151.691 20.5641 139.658L19.6578 140.081C25.5151 152.642 40.9319 159.149 60.8661 159.694C80.8337 160.239 105.5 154.817 130.149 143.323L129.727 142.417ZM169.322 39.1196C183.169 41.5117 193.359 47.5353 197.782 57.0204L198.688 56.5978C194.07 46.6943 183.502 40.5544 169.492 38.1342L169.322 39.1196ZM20.5641 139.658C16.9212 131.846 17.5905 122.551 21.8906 112.724C26.1909 102.897 34.1056 92.5828 44.8636 82.797L44.1907 82.0573C33.3634 91.906 25.3473 102.33 20.9745 112.323C16.6014 122.317 15.8552 131.926 19.6578 140.081L20.5641 139.658ZM44.8636 82.797C51.3063 76.9365 58.7635 71.2704 67.0639 66.0163L66.529 65.1714C58.1835 70.454 50.6796 76.1548 44.1907 82.0573L44.8636 82.797Z" fill="url(#paint0_linear_285_68)"/>
<path d="M169.553 0C169.553 21.106 152.443 38.2157 131.337 38.2157C152.443 38.2157 169.553 55.3255 169.553 76.4314C169.553 55.3255 186.663 38.2157 207.769 38.2157C186.663 38.2157 169.553 21.106 169.553 0Z" fill="#9FEF00"/>
<defs>
<linearGradient id="paint0_linear_285_68" x1="-15.4165" y1="255.925" x2="231.185" y2="100.08" gradientUnits="userSpaceOnUse">
<stop offset="0.46" stop-color="#9FEF00"/>
<stop offset="1" stop-color="#03FF89"/>
</linearGradient>
</defs>
</svg>
