<svg width="149" height="149" viewBox="0 0 149 149" fill="none" xmlns="http://www.w3.org/2000/svg">
<path d="M40.9542 103.784L40.9437 107.304L40.835 144.53L7.02686 125.007L7.13712 84.261L9.97557 85.9015L40.6442 103.604L40.9542 103.784Z" fill="#9FEF00" stroke="#111111" stroke-width="6" stroke-linecap="round" stroke-linejoin="round"/>
<path d="M74.5522 84.261L74.4419 125.007L40.835 144.53L40.9437 107.304L40.9542 103.784L71.7331 85.9015L74.5522 84.261Z" fill="#9FEF00" stroke="#111111" stroke-width="6" stroke-linecap="round" stroke-linejoin="round"/>
<path d="M74.5521 84.261L71.7331 85.9015L40.9541 103.784L40.6442 103.604L9.97554 85.9015L7.13708 84.261L40.744 64.739L74.5521 84.261Z" fill="#9FEF00" stroke="#111111" stroke-width="6" stroke-linecap="round" stroke-linejoin="round"/>
<path d="M108.375 103.784L108.365 107.304L108.256 144.53L74.4479 125.007L74.5581 84.261L77.3966 85.9015L108.065 103.604L108.375 103.784Z" fill="#9FEF00" stroke="#111111" stroke-width="6" stroke-linecap="round" stroke-linejoin="round"/>
<path d="M141.973 84.261L141.863 125.007L108.256 144.53L108.365 107.304L108.375 103.784L139.154 85.9015L141.973 84.261Z" fill="#9FEF00" stroke="#111111" stroke-width="6" stroke-linecap="round" stroke-linejoin="round"/>
<path d="M141.973 84.261L139.154 85.9015L108.375 103.784L108.065 103.604L77.3966 85.9015L74.5581 84.261L108.165 64.739L141.973 84.261Z" fill="#9FEF00" stroke="#111111" stroke-width="6" stroke-linecap="round" stroke-linejoin="round"/>
<path d="M74.6654 43.5154L74.6549 47.0348L74.5447 84.261L40.7366 64.739L40.8468 23.9935L43.6853 25.6325L74.3554 43.3366L74.6654 43.5154Z" fill="#9FEF00" stroke="#111111" stroke-width="6" stroke-linecap="round" stroke-linejoin="round"/>
<path d="M108.263 23.9935L108.153 64.739L74.5447 84.261L74.6549 47.0348L74.6654 43.5154L105.444 25.6325L108.263 23.9935Z" fill="#9FEF00" stroke="#111111" stroke-width="6" stroke-linecap="round" stroke-linejoin="round"/>
<path d="M108.263 23.9935L105.444 25.6325L74.6654 43.5154L74.3555 43.3366L43.6853 25.6325L40.8469 23.9935L74.4553 4.47L108.263 23.9935Z" fill="#9FEF00" stroke="#111111" stroke-width="6" stroke-linecap="round" stroke-linejoin="round"/>
</svg>
