<svg width="340" height="299" viewBox="0 0 340 299" fill="none" xmlns="http://www.w3.org/2000/svg">
<path d="M179.224 298.448C277.654 298.448 357.448 218.654 357.448 120.224C357.448 21.7936 277.654 -58 179.224 -58C80.7936 -58 1 21.7936 1 120.224C1 218.654 80.7936 298.448 179.224 298.448Z" stroke="#1E1E1E" stroke-miterlimit="10"/>
<path d="M99.8628 134.238L99.5991 218.72L25.1207 178.24L25.362 93.76L99.8628 134.238Z" stroke="#111111" stroke-width="6" stroke-linecap="round" stroke-linejoin="round"/>
<path d="M173.879 93.76L173.638 178.24L99.5991 218.72L99.8628 134.238L173.879 93.76Z" fill="#9FEF00" stroke="#111111" stroke-width="6" stroke-linecap="round" stroke-linejoin="round"/>
<path d="M99.8628 139.52C98.8783 139.521 97.911 139.278 97.0578 138.816L22.557 98.336C21.705 97.8731 20.9973 97.2075 20.5048 96.406C20.0124 95.6044 19.7526 94.6951 19.7515 93.7692C19.7503 92.8433 20.0079 91.9334 20.4984 91.1308C20.9888 90.3282 21.6949 89.661 22.5458 89.1963L96.5828 48.7146C97.4372 48.2489 98.407 48.0036 99.3943 48.0036C100.382 48.0036 101.352 48.2489 102.206 48.7146L176.684 89.1946C177.536 89.6574 178.243 90.3228 178.736 91.1241C179.228 91.9254 179.488 92.8344 179.489 93.76C179.49 94.6856 179.233 95.5952 178.743 96.3978C178.253 97.2003 177.548 97.8675 176.697 98.3325L102.681 138.812C101.824 139.278 100.852 139.522 99.8628 139.52Z" fill="#111111"/>
</svg>
