<svg width="40" height="39" viewBox="0 0 40 39" fill="none" xmlns="http://www.w3.org/2000/svg">
<path d="M26 19.2627C26 20.854 25.3678 22.3802 24.2426 23.5054C23.1174 24.6306 21.5913 25.2627 20 25.2627C18.4087 25.2627 16.8826 24.6306 15.7573 23.5054C14.6321 22.3802 14 20.854 14 19.2627C14.0013 18.9201 14.034 18.5867 14.098 18.2627H12V26.2567C12 26.8127 12.45 27.2627 13.006 27.2627H26.996C27.2624 27.2622 27.5178 27.156 27.706 26.9674C27.8943 26.7788 28 26.5232 28 26.2567V18.2627H25.902C25.966 18.5867 25.9987 18.9201 26 19.2627ZM20 23.2627C20.5254 23.2626 21.0457 23.159 21.531 22.9578C22.0164 22.7566 22.4574 22.4618 22.8288 22.0902C23.2003 21.7186 23.4949 21.2774 23.6958 20.7919C23.8968 20.3065 24.0001 19.7862 24 19.2607C23.9999 18.7353 23.8962 18.2151 23.695 17.7297C23.4939 17.2443 23.199 16.8033 22.8274 16.4319C22.4558 16.0605 22.0147 15.7659 21.5292 15.5649C21.0437 15.364 20.5234 15.2606 19.998 15.2607C18.9369 15.261 17.9193 15.6828 17.1691 16.4333C16.419 17.1838 15.9977 18.2016 15.998 19.2627C15.9983 20.3239 16.42 21.3414 17.1706 22.0916C17.9211 22.8417 18.9389 23.263 20 23.2627ZM24.8 15.0627H27.198C27.2769 15.063 27.3552 15.0477 27.4282 15.0176C27.5012 14.9876 27.5676 14.9435 27.6235 14.8877C27.6795 14.832 27.7238 14.7657 27.7541 14.6928C27.7844 14.6199 27.8 14.5417 27.8 14.4627V12.0647C27.8003 11.9856 27.7849 11.9072 27.7547 11.8341C27.7245 11.7609 27.6802 11.6944 27.6243 11.6385C27.5683 11.5825 27.5018 11.5382 27.4287 11.508C27.3555 11.4779 27.2771 11.4625 27.198 11.4627H24.8C24.7209 11.4625 24.6425 11.4779 24.5693 11.508C24.4961 11.5382 24.4297 11.5825 24.3737 11.6385C24.3178 11.6944 24.2734 11.7609 24.2433 11.8341C24.2131 11.9072 24.1977 11.9856 24.198 12.0647V14.4627C24.2 14.7927 24.47 15.0627 24.8 15.0627ZM20 0.0627441C14.9078 0.0627441 10.0242 2.0856 6.42354 5.68629C2.82284 9.28699 0.799988 14.1706 0.799988 19.2627C0.799988 24.3549 2.82284 29.2385 6.42354 32.8392C10.0242 36.4399 14.9078 38.4627 20 38.4627C22.5214 38.4627 25.0181 37.9661 27.3475 37.0012C29.677 36.0363 31.7936 34.6221 33.5764 32.8392C35.3593 31.0563 36.7736 28.9397 37.7385 26.6103C38.7034 24.2808 39.2 21.7841 39.2 19.2627C39.2 16.7414 38.7034 14.2447 37.7385 11.9152C36.7736 9.58577 35.3593 7.46918 33.5764 5.68629C31.7936 3.90341 29.677 2.48915 27.3475 1.52426C25.0181 0.559367 22.5214 0.0627441 20 0.0627441ZM30 27.0407C30 28.2627 29 29.2627 27.778 29.2627H12.222C11 29.2627 9.99999 28.2627 9.99999 27.0407V11.4847C9.99999 10.2627 11 9.26274 12.222 9.26274H27.778C29 9.26274 30 10.2627 30 11.4847V27.0407Z" fill="#9FEF00"/>
</svg>
