<svg width="76" height="76" viewBox="0 0 76 76" fill="none" xmlns="http://www.w3.org/2000/svg">
<circle cx="38" cy="38" r="36" stroke="url(#paint0_linear_115_87)" stroke-width="4"/>
<path d="M31.3333 50V47.3333H36.6667V43.2C35.5778 42.9556 34.6058 42.4947 33.7507 41.8173C32.8956 41.14 32.2676 40.2898 31.8667 39.2667C30.2 39.0667 28.8058 38.3391 27.684 37.084C26.5622 35.8289 26.0009 34.3564 26 32.6667V31.3333C26 30.6 26.2613 29.9724 26.784 29.4507C27.3067 28.9289 27.9342 28.6676 28.6667 28.6667H31.3333V26H44.6667V28.6667H47.3333C48.0667 28.6667 48.6947 28.928 49.2173 29.4507C49.74 29.9733 50.0009 30.6009 50 31.3333V32.6667C50 34.3556 49.4387 35.828 48.316 37.084C47.1933 38.34 45.7991 39.0676 44.1333 39.2667C43.7333 40.2889 43.1058 41.1391 42.2507 41.8173C41.3956 42.4956 40.4231 42.9564 39.3333 43.2V47.3333H44.6667V50H31.3333ZM31.3333 36.4V31.3333H28.6667V32.6667C28.6667 33.5111 28.9111 34.2724 29.4 34.9507C29.8889 35.6289 30.5333 36.112 31.3333 36.4ZM44.6667 36.4C45.4667 36.1111 46.1111 35.6276 46.6 34.9493C47.0889 34.2711 47.3333 33.5102 47.3333 32.6667V31.3333H44.6667V36.4Z" fill="#9FEF00"/>
<defs>
<linearGradient id="paint0_linear_115_87" x1="-31.4173" y1="108.242" x2="81.8593" y2="101.109" gradientUnits="userSpaceOnUse">
<stop offset="0.46" stop-color="#9FEF00"/>
<stop offset="1" stop-color="#03FF89"/>
</linearGradient>
</defs>
</svg>
