<svg width="358" height="358" viewBox="0 0 358 358" fill="none" xmlns="http://www.w3.org/2000/svg">
<path d="M179.224 357.448C277.654 357.448 357.448 277.654 357.448 179.224C357.448 80.7936 277.654 1 179.224 1C80.7936 1 1 80.7936 1 179.224C1 277.654 80.7936 357.448 179.224 357.448Z" stroke="#1E1E1E" stroke-miterlimit="10"/>
<path d="M99.8628 193.238L99.5991 277.72L25.1208 237.24L25.362 152.76L99.8628 193.238Z" stroke="#111111" stroke-width="6" stroke-linecap="round" stroke-linejoin="round"/>
<path d="M173.879 152.76L173.638 237.24L99.5991 277.72L99.8628 193.238L173.879 152.76Z" fill="#9fef00" stroke="#111111" stroke-width="6" stroke-linecap="round" stroke-linejoin="round"/>
<path d="M99.8628 198.52C98.8783 198.521 97.911 198.278 97.0578 197.816L22.557 157.336C21.705 156.873 20.9973 156.208 20.5048 155.406C20.0124 154.604 19.7526 153.695 19.7515 152.769C19.7503 151.843 20.0079 150.933 20.4984 150.131C20.9888 149.328 21.6949 148.661 22.5458 148.196L96.5828 107.715C97.4372 107.249 98.407 107.004 99.3943 107.004C100.382 107.004 101.352 107.249 102.206 107.715L176.684 148.195C177.536 148.657 178.243 149.323 178.736 150.124C179.228 150.925 179.488 151.834 179.489 152.76C179.49 153.686 179.233 154.595 178.743 155.398C178.253 156.2 177.548 156.868 176.697 157.332L102.681 197.812C101.824 198.278 100.852 198.522 99.8628 198.52Z" fill="#111111"/>
</svg>
