<svg width="197" height="197" viewBox="0 0 197 197" fill="none" xmlns="http://www.w3.org/2000/svg">
<path d="M187.377 68.8141V103.179H124.472V166.083H90.1393V103.179H27.2057V68.8141H90.1393V5.91003H124.472V68.8141H187.377Z" stroke="#111111" stroke-width="6" stroke-linecap="round" stroke-linejoin="round"/>
<path d="M90.1393 5.91003V68.8141H72.5275V30.9172C74.2493 28.6596 90.1393 5.91003 90.1393 5.91003Z" fill="#9fef00" stroke="#111111" stroke-width="6" stroke-linecap="round" stroke-linejoin="round"/>
<path d="M90.1394 103.179V166.083L72.5275 191.09V128.186H9.62347L27.2057 103.179H90.1394Z" fill="#9fef00" stroke="#111111" stroke-width="6" stroke-linecap="round" stroke-linejoin="round"/>
<path d="M124.472 166.083C124.472 166.083 108.582 189.693 106.861 191.09H72.5275L90.1393 166.083H124.472Z" fill="#9fef00" stroke="#111111" stroke-width="6" stroke-linecap="round" stroke-linejoin="round"/>
<path d="M187.377 103.179L169.765 128.186H124.472V103.179H187.377Z" fill="#9fef00" stroke="#111111" stroke-width="6" stroke-linecap="round" stroke-linejoin="round"/>
<path d="M27.2057 68.8141V103.179L9.62347 128.186V93.8213L27.2057 68.8141Z" fill="#9fef00" stroke="#111111" stroke-width="6" stroke-linecap="round" stroke-linejoin="round"/>
<path d="M90.1393 103.179L72.5275 128.186" stroke="#111111" stroke-width="6" stroke-linecap="round" stroke-linejoin="round"/>
</svg>
