<svg width="40" height="39" viewBox="0 0 40 39" fill="none" xmlns="http://www.w3.org/2000/svg">
<path d="M20 0.0627441C9.39599 0.0627441 0.799988 8.65874 0.799988 19.2627C0.799988 29.8667 9.39599 38.4627 20 38.4627C30.604 38.4627 39.2 29.8667 39.2 19.2627C39.2 8.65874 30.604 0.0627441 20 0.0627441ZM15.3 27.2207H11.412V14.7087H15.3V27.2207ZM13.332 13.1727C12.104 13.1727 11.31 12.3027 11.31 11.2267C11.31 10.1287 12.128 9.28474 13.382 9.28474C14.636 9.28474 15.404 10.1287 15.428 11.2267C15.428 12.3027 14.636 13.1727 13.332 13.1727ZM29.5 27.2207H25.612V20.2867C25.612 18.6727 25.048 17.5767 23.642 17.5767C22.568 17.5767 21.93 18.3187 21.648 19.0327C21.544 19.2867 21.518 19.6467 21.518 20.0047V27.2187H17.628V18.6987C17.628 17.1367 17.578 15.8307 17.526 14.7067H20.904L21.082 16.4447H21.16C21.672 15.6287 22.926 14.4247 25.024 14.4247C27.582 14.4247 29.5 16.1387 29.5 19.8227V27.2207Z" fill="#9fef00"/>
</svg>
