<svg width="232" height="83" viewBox="0 0 232 83" fill="none" xmlns="http://www.w3.org/2000/svg">
<path d="M37.9648 4.9502C39.9175 2.99757 43.0825 2.99757 45.0352 4.9502L78.0498 37.9648C80.0024 39.9175 80.0024 43.0825 78.0498 45.0352L45.0352 78.0498C43.0825 80.0024 39.9175 80.0024 37.9648 78.0498L4.9502 45.0352C2.99757 43.0825 2.99757 39.9175 4.9502 37.9648L37.9648 4.9502Z" stroke="#9fef00" stroke-width="2"/>
<path d="M46.456 34.92V39.464H53.784V43.688H46.456V48.616H54.744V53H40.984V30.536H54.744V34.92H46.456ZM73.3365 39.496V44.04H59.2565V39.496H73.3365ZM84.891 48.776H92.059V53H79.419V30.536H84.891V48.776ZM112.781 43.784C112.781 44.296 112.749 44.8293 112.685 45.384H100.301C100.386 46.4933 100.738 47.3467 101.357 47.944C101.997 48.52 102.776 48.808 103.693 48.808C105.058 48.808 106.008 48.232 106.541 47.08H112.365C112.066 48.2533 111.522 49.3093 110.733 50.248C109.965 51.1867 108.994 51.9227 107.821 52.456C106.648 52.9893 105.336 53.256 103.885 53.256C102.136 53.256 100.578 52.8827 99.213 52.136C97.8477 51.3893 96.781 50.3227 96.013 48.936C95.245 47.5493 94.861 45.928 94.861 44.072C94.861 42.216 95.2343 40.5947 95.981 39.208C96.749 37.8213 97.8157 36.7547 99.181 36.008C100.546 35.2613 102.114 34.888 103.885 34.888C105.613 34.888 107.149 35.2507 108.493 35.976C109.837 36.7013 110.882 37.736 111.629 39.08C112.397 40.424 112.781 41.992 112.781 43.784ZM107.181 42.344C107.181 41.4053 106.861 40.6587 106.221 40.104C105.581 39.5493 104.781 39.272 103.821 39.272C102.904 39.272 102.125 39.5387 101.485 40.072C100.866 40.6053 100.482 41.3627 100.333 42.344H107.181ZM115.86 44.04C115.86 42.2053 116.201 40.5947 116.884 39.208C117.588 37.8213 118.537 36.7547 119.732 36.008C120.926 35.2613 122.26 34.888 123.732 34.888C124.99 34.888 126.089 35.144 127.028 35.656C127.988 36.168 128.724 36.84 129.236 37.672V35.144H134.708V53H129.236V50.472C128.702 51.304 127.956 51.976 126.996 52.488C126.057 53 124.958 53.256 123.7 53.256C122.249 53.256 120.926 52.8827 119.732 52.136C118.537 51.368 117.588 50.2907 116.884 48.904C116.201 47.496 115.86 45.8747 115.86 44.04ZM129.236 44.072C129.236 42.7067 128.852 41.6293 128.084 40.84C127.337 40.0507 126.42 39.656 125.332 39.656C124.244 39.656 123.316 40.0507 122.548 40.84C121.801 41.608 121.428 42.6747 121.428 44.04C121.428 45.4053 121.801 46.4933 122.548 47.304C123.316 48.0933 124.244 48.488 125.332 48.488C126.42 48.488 127.337 48.0933 128.084 47.304C128.852 46.5147 129.236 45.4373 129.236 44.072ZM145.419 38.12C146.059 37.1387 146.859 36.3707 147.819 35.816C148.779 35.24 149.845 34.952 151.019 34.952V40.744H149.515C148.149 40.744 147.125 41.0427 146.443 41.64C145.76 42.216 145.419 43.24 145.419 44.712V53H139.947V35.144H145.419V38.12ZM165.794 34.952C167.885 34.952 169.549 35.6347 170.786 37C172.045 38.344 172.674 40.2 172.674 42.568V53H167.234V43.304C167.234 42.1093 166.925 41.1813 166.306 40.52C165.687 39.8587 164.855 39.528 163.81 39.528C162.765 39.528 161.933 39.8587 161.314 40.52C160.695 41.1813 160.386 42.1093 160.386 43.304V53H154.914V35.144H160.386V37.512C160.941 36.7227 161.687 36.104 162.626 35.656C163.565 35.1867 164.621 34.952 165.794 34.952ZM180.509 33.288C179.549 33.288 178.759 33.0107 178.141 32.456C177.543 31.88 177.245 31.176 177.245 30.344C177.245 29.4907 177.543 28.7867 178.141 28.232C178.759 27.656 179.549 27.368 180.509 27.368C181.447 27.368 182.215 27.656 182.813 28.232C183.431 28.7867 183.741 29.4907 183.741 30.344C183.741 31.176 183.431 31.88 182.813 32.456C182.215 33.0107 181.447 33.288 180.509 33.288ZM183.229 35.144V53H177.757V35.144H183.229ZM199.354 34.952C201.445 34.952 203.109 35.6347 204.346 37C205.605 38.344 206.234 40.2 206.234 42.568V53H200.794V43.304C200.794 42.1093 200.485 41.1813 199.866 40.52C199.247 39.8587 198.415 39.528 197.37 39.528C196.325 39.528 195.493 39.8587 194.874 40.52C194.255 41.1813 193.946 42.1093 193.946 43.304V53H188.474V35.144H193.946V37.512C194.501 36.7227 195.247 36.104 196.186 35.656C197.125 35.1867 198.181 34.952 199.354 34.952ZM218.101 34.888C219.359 34.888 220.458 35.144 221.397 35.656C222.357 36.168 223.093 36.84 223.605 37.672V35.144H229.077V52.968C229.077 54.6107 228.746 56.0933 228.085 57.416C227.445 58.76 226.453 59.8267 225.109 60.616C223.786 61.4053 222.133 61.8 220.149 61.8C217.503 61.8 215.359 61.1707 213.717 59.912C212.074 58.6747 211.135 56.9893 210.901 54.856H216.309C216.479 55.5387 216.885 56.072 217.525 56.456C218.165 56.8613 218.954 57.064 219.893 57.064C221.023 57.064 221.919 56.7333 222.581 56.072C223.263 55.432 223.605 54.3973 223.605 52.968V50.44C223.071 51.272 222.335 51.9547 221.397 52.488C220.458 53 219.359 53.256 218.101 53.256C216.629 53.256 215.295 52.8827 214.101 52.136C212.906 51.368 211.957 50.2907 211.253 48.904C210.57 47.496 210.229 45.8747 210.229 44.04C210.229 42.2053 210.57 40.5947 211.253 39.208C211.957 37.8213 212.906 36.7547 214.101 36.008C215.295 35.2613 216.629 34.888 218.101 34.888ZM223.605 44.072C223.605 42.7067 223.221 41.6293 222.453 40.84C221.706 40.0507 220.789 39.656 219.701 39.656C218.613 39.656 217.685 40.0507 216.917 40.84C216.17 41.608 215.797 42.6747 215.797 44.04C215.797 45.4053 216.17 46.4933 216.917 47.304C217.685 48.0933 218.613 48.488 219.701 48.488C220.789 48.488 221.706 48.0933 222.453 47.304C223.221 46.5147 223.605 45.4373 223.605 44.072Z" fill="#252641"/>
</svg>
