<svg width="38" height="39" viewBox="0 0 38 39" fill="none" xmlns="http://www.w3.org/2000/svg">
<path fill-rule="evenodd" clip-rule="evenodd" d="M12.2335 13.2056C14.0675 11.3996 16.2532 10.5054 18.8537 10.5054C21.4542 10.5054 23.64 11.3979 25.474 13.2056C27.308 15.0134 28.2075 17.1571 28.2075 19.7051C28.2075 22.2531 27.308 24.3951 25.474 26.2029C23.64 28.0106 21.4542 28.9031 18.8537 28.9031C16.2532 28.9031 14.0675 28.0106 12.2335 26.2029C10.3995 24.3951 9.5 22.2514 9.5 19.7051C9.5 17.1589 10.3995 15.0116 12.2335 13.2056ZM24.4432 19.7069L15.3537 24.7976V14.6091L24.4432 19.7069Z" fill="#9fef00"/>
<path fill-rule="evenodd" clip-rule="evenodd" d="M32.4349 32.6972C36.1462 28.9869 38.0013 24.509 38 19.2637C38 14.017 36.145 9.53851 32.4349 5.82819C28.7236 2.11786 24.2453 0.262695 19 0.262695C13.7547 0.262695 9.27643 2.11786 5.5651 5.82819C1.85377 9.53851 -0.00126602 14.017 6.48243e-07 19.2637C6.48243e-07 24.509 1.85503 28.9869 5.5651 32.6972C9.27643 36.4075 13.7547 38.2627 19 38.2627C24.2465 38.2627 28.7248 36.4075 32.4349 32.6972ZM19 6.59956C15.5287 6.59956 12.5267 7.84148 10.0662 10.3022C7.6038 12.7648 6.3555 15.7732 6.3555 19.2637C6.3555 22.7522 7.6038 25.7625 10.0662 28.2232C12.5267 30.6839 15.5268 31.9258 19 31.9258C22.4732 31.9258 25.4733 30.6839 27.9338 28.2232C30.3962 25.7625 31.6445 22.7522 31.6445 19.2637C31.6445 15.7732 30.3962 12.7648 27.9338 10.3022C25.4733 7.84148 22.4713 6.59956 19 6.59956Z" fill="#9fef00"/>
</svg>
